<?xml version="1.0"?>
<svg width="2048" height="1365" xmlns="http://www.w3.org/2000/svg" xmlns:svg="http://www.w3.org/2000/svg" version="1.1">
 <g class="layer">
  <title>Layer 1</title>
  <path d="m0,0l2048,0l0,1365l-2048,0l0,-1365z" fill="#004B96" id="svg_1" transform="translate(0)"/>
  <path d="m0,0l2048,0l0,227l-82,32l-39,15l-3,0l0,2l-131,51l-90,35l-131,51l-278,108l-31,12l-40,16l-16,6l-20,8l-31,12l-65,25l-30,12l-21,8l-30,12l-31,11l-16,5l-22,7l-4,-1l2,0l2,-4l8,-4l7,-2l-4,-9l-1,-2l-5,1l-11,4l-15,4l-18,6l-11,4l-11,1l-13,0l4,-2l1,-2l12,-6l15,-6l20,-9l10,-5l5,-2l4,0l0,-3l-4,-2l-5,-6l-9,3l-11,4l-13,4l-27,9l-16,6l-19,7l-8,1l-1,-6l4,-4l30,-12l5,0l0,3l7,-1l14,-6l4,-7l4,-2l0,-2l10,-5l7,-2l-1,-3l-7,-3l0,-5l-2,0l0,-2l-13,2l-3,-1l-8,9l-8,4l-25,9l-6,0l3,-9l5,-5l8,-5l21,-8l3,-2l10,0l14,-5l5,-3l5,-10l3,-10l-11,2l-10,4l-6,9l-4,4l-13,2l-4,3l-12,0l-1,-1l-10,1l-8,1l-3,3l-2,0l0,2l-2,0l-1,3l-10,5l-23,8l-5,-1l2,-9l2,0l2,-4l5,-4l2,0l-1,-4l3,-10l1,-3l-1,-1l-8,1l-11,4l-4,2l-3,6l-2,0l-1,5l-3,3l-4,2l-8,1l0,1l-10,2l-1,3l-7,1l-2,-7l-2,-1l2,-8l6,-4l6,-12l3,-7l0,-4l-5,1l-15,6l-5,8l-6,13l-1,4l2,0l-1,4l-4,7l-5,5l-3,4l-4,9l-3,2l-2,5l3,1l-1,6l-5,8l-6,5l-12,5l-12,4l-6,3l-3,-1l0,-6l2,-5l2,0l2,-5l4,-4l3,-9l2,-5l0,-4l-2,-2l-1,-6l8,-4l4,-6l6,-15l0,-3l-6,1l-14,6l-5,8l-7,17l9,-1l-16,16l-8,17l0,8l-9,13l-4,6l-21,8l-12,5l-3,0l0,-6l-6,1l-7,4l-7,3l-3,3l-3,6l-9,4l-28,11l-2,0l0,-5l-6,1l-15,6l-4,8l-13,6l-24,9l-3,-1l1,-2l-10,3l-12,5l-4,6l-20,8l-18,7l-7,0l-22,11l-28,11l-15,5l-16,6l-5,3l-33,13l-10,3l-24,10l-31,12l-16,6l-20,8l-28,11l-16,6l-28,11l-20,8l-17,6l-9,4l-38,15l-17,6l-2,0l0,-912z" fill="#004B96" id="svg_2"/>
  <path d="m0,0l2,0l34,72l18,38l16,34l14,29l13,28l16,33l13,28l14,29l13,28l15,31l13,28l16,33l13,28l14,29l13,28l2,6l-696,0l0,-324l8,-4l42,-16l41,-16l98,-38l240,-93l28,-11z" fill="#002B5A" id="svg_3" transform="translate(457,863)"/>
  <path d="m0,0l2,0l0,19l-43,17l-90,35l-98,38l-38,15l-13,5l-13,4l-20,8l-39,15l-46,18l-139,54l-234,91l-126,49l-33,13l-10,3l-50,20l-83,33l-10,5l-16,6l-8,4l-16,6l-12,6l-10,4l-19,9l-8,4l-14,8l-8,4l-12,10l-8,3l-8,6l-3,0l-2,-5l-9,4l-3,0l0,3l-19,6l-19,5l-31,7l-41,13l-32,11l-34,13l-58,22l-9,4l-88,34l-15,6l-4,0l0,2l-46,18l-343,133l-52,20l-16,6l0,-129l15,-6l16,-6l26,-10l12,-5l37,-14l32,-13l30,-11l24,-10l15,-6l15,-5l49,-20l10,-3l31,-12l5,-3l18,-7l13,-4l15,-6l13,-5l5,-3l14,-7l8,0l17,-7l20,-8l4,-6l17,-7l5,0l0,2l10,-3l28,-11l5,-9l15,-6l6,-1l1,3l-1,3l38,-15l5,-9l5,-3l7,-3l6,-3l5,1l-1,6l20,-8l16,-6l7,-11l5,-7l0,-8l9,-19l7,-5l3,-5l4,-3l-5,1l-2,-1l1,-5l8,-18l5,-4l15,-6l4,1l-1,5l-5,13l-4,6l-8,5l2,6l1,5l-4,9l-2,6l-6,8l-2,0l-1,11l5,-1l8,-4l12,-4l10,-5l5,-6l4,-10l-4,-1l3,-6l4,-4l4,-9l5,-6l3,-3l4,-8l-2,0l1,-6l8,-16l5,-5l15,-6l4,1l-1,6l-5,12l-5,7l-5,2l-1,6l-1,2l3,1l1,7l7,-2l3,-3l7,-2l4,-2l4,-1l6,-2l2,-2l1,-4l2,0l2,-4l5,-5l14,-5l5,0l2,3l-3,7l-1,9l-6,4l-3,4l-2,0l-1,6l-1,3l8,-1l25,-9l5,-3l1,-2l2,0l0,-2l5,-4l8,-1l10,-1l1,1l12,0l4,-3l13,-2l6,-7l4,-6l10,-4l11,-2l1,2l-5,14l-4,6l-8,4l-11,4l-10,0l-10,5l-16,6l-8,5l-4,7l-1,4l8,-1l27,-10l7,-6l5,-5l5,1l10,-1l0,2l2,0l1,5l7,3l1,3l-10,4l-6,3l-2,0l0,2l-5,5l-3,5l-16,7l-6,0l1,-4l-13,4l-22,9l-3,4l0,5l17,-5l18,-7l17,-6l26,-9l13,-4l10,-4l4,2l5,6l2,1l0,3l-16,6l-12,6l-18,8l-14,6l-3,0l-1,2l-5,3l15,0l10,-2l17,-6l19,-6l13,-4l4,-2l5,1l5,10l-1,2l-12,4l-5,5l12,-3l57,-19l27,-11l26,-10l30,-12l26,-10l42,-16l36,-14l24,-10l16,-6l20,-8l16,-6l82,-32l139,-54l175,-68l90,-35l131,-51l26,-10l10,-3l0,-2l50,-19l46,-18l26,-10z" fill="#0067BC" id="svg_4" transform="translate(2046,227)"/>
  <path d="m0,0l4,1l1,5l-12,7l-8,4l-20,8l-24,10l-20,9l-12,6l-8,3l-1,14l12,-5l16,-5l17,-5l14,-5l10,-4l8,-1l-3,6l-7,4l-1,2l-16,8l-13,5l-12,6l-19,9l-6,1l1,8l-1,6l5,1l4,-3l9,-1l-4,3l-42,18l-24,10l-20,9l-3,3l-23,10l-4,-1l-1,2l-6,2l-26,12l-5,1l-29,13l-12,6l-2,-1l1,-2l-13,6l-15,6l-16,9l-14,6l-6,4l-4,3l11,-1l7,-2l11,-1l-2,2l-42,16l-46,18l-49,19l-240,93l-29,11l0,-120l11,-4l12,-5l26,-10l16,-6l27,-11l21,-8l17,-6l19,-8l28,-11l20,-7l19,-8l25,-10l10,-3l16,-6l8,-4l26,-10l28,-10l8,-4l28,-11l6,-2l10,-3l13,-4l3,-3l29,-12l9,-2l7,-1l15,-5l4,-5l28,-11l10,-3l2,2l14,-3l6,-4l4,-6l34,-13l4,1l-1,2l6,0l-2,4l-2,5l-8,5l-9,21l0,2l7,-1l14,-7l8,-16l3,-8l-2,-3l1,-6l5,-3l2,0l2,-5l3,-3l30,-11l5,0l1,6l-2,4l-2,0l-2,5l-4,6l-6,16l0,6l6,-2l10,-4l4,-2l5,-8l6,-4l11,-4l9,-2l5,-2l6,0l-1,5l13,-4l10,-4l4,-8l31,-12z" fill="#004B96" id="svg_5" transform="translate(729,673)"/>
  <path d="m0,0l258,0l0,227l-82,32l-42,16l-2,-1l6,-3l3,-3l8,-4l1,-3l14,-6l-1,-6l-2,-5l-7,1l-5,2l-12,1l-12,4l-4,-2l1,-5l8,-4l7,-3l1,-3l14,-6l-1,-8l-2,-3l-7,1l-10,3l0,-2l-10,3l-5,2l-7,0l-1,-5l6,-4l9,-4l2,-1l1,-3l12,-5l1,-3l-5,-8l-9,2l-7,2l-9,1l-5,2l-7,0l-2,-1l0,-4l9,-5l8,-4l1,-3l12,-5l-1,-6l-2,-5l-12,3l-6,1l-8,1l-9,2l-3,2l-4,-4l4,-5l10,-4l7,-6l9,-4l1,-3l-5,-7l-6,0l-7,3l-9,0l-13,4l-6,-1l1,-4l2,-3l11,-4l4,-3l0,-2l12,-5l-1,-4l-4,-6l-8,1l-8,3l-3,-1l-11,3l-4,0l0,2l-4,1l-4,-3l1,-5l13,-6l4,-3l2,-2l11,-5l-4,-10l-11,2l-7,2l-9,1l-7,3l-7,0l-3,-2l0,-4l13,-5l4,-3l0,-2l12,-5l1,-2l-5,-8l-9,1l-5,2l-7,0l-10,3l-5,2l-6,0l-2,-2l1,-5l14,-6l3,-1l0,-3l12,-5l-1,-4l-4,-5l-8,0l-10,3l-10,1l-6,2l-4,-2l0,-5l9,-5l2,0l-1,-3l13,-5l0,-4l-7,-6l-16,4l-9,1l-12,3l-5,0l-2,-2l0,-3l13,-5l4,-4l4,-3l9,-4l2,0l-4,-6l0,-3z" fill="#002B5A" id="svg_6" transform="translate(1790)"/>
  <path d="m0,0l7,0l0,4l-2,0l0,2l-21,9l-121,48l-10,5l-16,6l-8,4l-16,6l-12,6l-10,4l-19,9l-8,4l-14,8l-8,4l-12,10l-8,3l-8,6l-3,0l-2,-5l-9,4l-3,0l0,3l-19,6l-19,5l-31,7l-41,13l-32,11l-34,13l-58,22l-20,6l-21,6l-7,0l0,-3l15,-8l34,-14l15,-7l31,-13l27,-11l36,-15l19,-9l17,-9l9,-5l10,-9l10,-8l10,-6l26,-14l18,-7l24,-7l16,-3l19,-2l3,1l10,0l24,-6l24,-8l50,-18l17,-6l52,-19l36,-13l26,-8l7,-2z" fill="#1798D3" id="svg_7" transform="translate(1110,601)"/>
  <path d="m0,0l6,5l7,14l6,6l8,16l2,2l0,198l-99,0l-4,-9l-1,-10l-5,-11l1,-6l3,-1l6,11l5,4l7,13l3,2l3,-9l1,-1l-1,-8l-6,-13l-1,-9l-5,-11l-2,-9l-2,-5l3,-2l2,6l4,4l6,10l2,0l8,16l2,0l5,-8l0,-7l-7,-15l-1,-8l-6,-16l0,-6l4,0l7,13l3,0l8,16l0,2l3,0l1,-5l3,-6l-1,-7l-7,-15l-1,-8l-5,-12l-1,-5l-3,-5l0,-6l3,-2l8,16l4,6l2,-1l9,18l2,0l4,-11l-1,-7l-7,-15l-1,-9l-4,-9l-3,-9l0,-4l6,2l6,11l3,1l8,16l0,2l3,-1l4,-12l-3,-10l-6,-13l-1,-9l-7,-15l-2,-10l0,-3l2,1l2,4l3,1l6,12l2,3l2,-1l8,17l2,2l4,-9l1,-6l-5,-13l-4,-8l-2,-11l-7,-16l-3,-5l1,-8z" fill="#002B5A" id="svg_8" transform="translate(2019,1124)"/>
  <path d="m0,0l2,0l0,71l-5,10l-3,-4l-3,-5l-8,0l-5,-1l-1,7l9,19l2,2l-1,6l-3,3l-5,-8l0,-5l-2,0l-3,-11l-1,-4l-4,0l-1,-2l-8,-3l-9,0l0,5l-2,0l1,3l-2,0l0,2l-4,-1l-3,-1l-1,-2l-4,-2l-7,1l-5,1l0,2l-2,0l-2,4l-6,0l-3,-2l-17,0l-1,7l-2,1l-10,-5l-14,0l-1,9l-5,0l-3,-3l-1,-2l-9,0l-7,1l-2,8l-4,1l-3,-4l-3,-1l0,-2l-7,0l-5,2l-5,0l0,7l-5,1l-6,-5l-7,0l-3,1l-7,0l0,6l-3,2l-5,-2l0,-2l-4,-2l-8,-1l-6,1l-1,7l-3,4l-6,-3l-4,-5l-8,1l-4,2l-2,5l0,2l-5,1l-7,-6l4,-3l29,-11l38,-15l121,-47l49,-19l41,-16z" fill="#002B5A" id="svg_9" transform="translate(2046,246)"/>
  <path d="m0,0l2,1l-5,3l-10,3l0,2l-14,6l-10,2l0,2l-14,6l-10,4l-19,8l-27,11l-18,8l-10,4l-15,7l-14,7l-2,0l-1,3l-2,0l-1,3l-7,5l-5,10l-8,7l-8,2l-4,9l-5,4l-1,2l9,-1l10,12l3,4l3,1l2,-4l-1,-12l7,-3l6,1l7,8l7,10l4,12l9,19l9,20l8,20l3,7l4,10l3,6l1,4l-3,1l-1,4l-3,3l-4,0l-4,-9l-6,-10l-9,-17l-4,-7l-8,-16l-7,-15l-4,-4l-1,-6l-2,0l-2,-2l-1,3l1,6l2,0l3,11l8,17l7,16l3,8l6,13l4,12l5,9l-1,4l-7,4l-4,1l-5,-12l-7,-11l-6,-12l-3,-4l-16,-32l-4,-5l-2,-4l-2,0l1,5l2,5l1,6l7,15l8,18l16,40l-6,1l-8,-16l-16,-33l-13,-28l-12,-25l-4,-8l-8,-17l-11,-23l-4,-7l-6,1l-5,1l0,5l-11,5l-7,3l-25,6l-18,2l-15,1l-20,5l-29,9l-48,16l-3,-1l37,-14l44,-15l23,-7l35,-8l25,-7l9,-2l0,-3l10,-4l2,0l2,5l6,-3l2,0l1,-3l3,-2l7,-2l15,-12l16,-8l10,-6l6,-2l15,-8l16,-6l10,-5l16,-6l10,-5l16,-6l8,-4l55,-22l26,-10z" fill="#0067BC" id="svg_10" transform="translate(1059,629)"/>
  <path d="m0,0l13,0l3,3l3,6l4,-9l1,0l0,54l-4,-2l-4,8l-2,0l-3,9l-16,36l-36,82l-15,34l-6,15l-28,63l-8,3l-10,4l-2,0l1,-5l16,-36l11,-26l8,-16l13,-30l18,-41l19,-43l18,-41l13,-30l2,-6l-1,-5l-9,-17l-1,-5l2,-5z" fill="#0067BC" id="svg_11" transform="translate(2024,317)"/>
  <path d="m0,0l1,2l-36,82l-38,86l-18,41l-12,28l-13,30l-17,38l-5,3l-15,5l3,-9l54,-123l19,-43l36,-82l19,-43l4,-8l18,-7z" fill="#0068BD" id="svg_12" transform="translate(2014,329)"/>
  <path d="m0,0l2,0l-2,6l-19,43l-18,41l-19,43l-18,41l-19,43l-9,21l-13,30l-17,39l-12,5l-8,2l3,-9l19,-43l18,-41l19,-43l36,-82l19,-43l18,-41l2,-5l18,-7z" fill="#0067BC" id="svg_13" transform="translate(1960,350)"/>
  <path d="m0,0l1,2l-13,29l-18,41l-19,43l-12,28l-3,-4l0,-2l-3,0l2,5l3,3l-28,63l-13,30l-3,6l-10,23l-4,9l-11,25l-3,7l-12,5l-7,2l1,-5l15,-34l14,-32l18,-41l19,-43l36,-82l19,-43l12,-27l11,-5l8,-3z" fill="#0067BC" id="svg_14" transform="translate(1908,370)"/>
  <path d="m0,0l2,1l-16,36l-36,82l-19,43l-18,41l-12,27l-15,34l-4,0l2,1l-3,11l-8,18l-7,14l-12,5l-2,-1l-2,2l-1,-5l11,-24l2,1l-1,5l1,-1l1,-6l-1,-4l28,-64l19,-43l17,-39l38,-86l14,-32l4,-9l18,-7z" fill="#0067BC" id="svg_15" transform="translate(1854,391)"/>
  <path d="m0,0l102,0l-1,3l-12,6l-28,11l-19,10l-14,13l-9,6l6,-1l27,-10l1,2l17,-6l11,-4l3,0l1,5l-4,4l-9,3l-10,5l-26,10l-17,9l-4,1l-3,3l-8,3l-4,0l0,-73z" fill="#002B5A" id="svg_16" transform="translate(0)"/>
  <path d="m0,0l2,0l-3,9l-36,82l-19,43l-14,32l-12,27l-15,34l-3,-1l-7,-15l11,-25l2,-2l2,3l3,0l-3,-6l1,-7l13,-29l14,-32l18,-41l15,-34l13,-30l10,-5l8,-3z" fill="#0067BC" id="svg_17" transform="translate(1800,412)"/>
  <path d="m0,0l1,0l0,38l-18,40l-13,30l-18,41l-12,27l-17,7l-4,1l10,-24l14,-31l5,-12l6,-12l14,-32l19,-43l13,-30z" fill="#0068BD" id="svg_18" transform="translate(2047,419)"/>
  <path d="m0,0l3,0l-3,9l-14,31l-11,25l-13,30l-13,29l-3,3l-3,-3l-5,-13l7,-17l18,-41l19,-43l5,-5l13,-5z" fill="#0068BD" id="svg_19" transform="translate(1746,433)"/>
  <path d="m0,0l13,0l7,7l13,28l7,16l4,10l5,11l5,14l5,9l0,7l-5,1l-1,3l-2,0l-1,2l-10,-19l-3,-4l-16,-32l-13,-25l-7,-16l-1,-3l0,-9z" fill="#0068BD" id="svg_20" transform="translate(904,741)"/>
  <path d="m0,0l5,1l3,1l8,17l3,8l12,23l11,23l7,14l3,7l5,10l1,8l2,0l2,7l1,2l-3,3l-2,0l-3,-8l0,-6l-9,-3l-3,-5l2,-3l1,-6l-10,0l1,-4l1,-1l-1,-7l-2,-4l-6,-2l-1,-2l1,-7l-1,-1l-7,0l0,-3l1,-7l-7,0l-2,-3l3,-4l0,-3l-7,-2l2,-9l-8,-1l1,-5l2,-6l-7,0l0,-3l2,-7l-6,-2l-2,-2l7,-8z" fill="#004B96" id="svg_21" transform="translate(401,950)"/>
  <path d="m0,0l5,2l4,5l6,15l7,15l5,12l4,10l6,12l-1,7l1,3l-3,0l0,2l-2,0l0,3l-3,1l-9,-19l-9,-15l-14,-28l-7,-15l0,-7l9,-2l1,-1z" fill="#0068BD" id="svg_22" transform="translate(941,735)"/>
  <path d="m0,0l1,2l-24,54l-2,1l-3,-1l-1,-1l2,6l-1,7l-9,20l-3,0l-5,-7l-3,-7l13,-30l6,-13l10,-23l8,-4l11,-4z" fill="#0068BD" id="svg_23" transform="translate(1695,453)"/>
  <path d="m0,0l2,1l-16,36l-15,34l-3,0l-4,-7l-6,-1l2,-6l18,-41l4,-9l18,-7z" fill="#0068BD" id="svg_24" transform="translate(1854,391)"/>
  <path d="m0,0l4,2l6,10l-1,7l-14,31l-9,21l-3,0l-5,-8l-2,-4l1,-7l12,-27l11,-25z" fill="#0068BD" id="svg_25" transform="translate(1681,550)"/>
  <path d="m0,0l2,0l11,23l12,25l0,2l-37,0l4,-12l1,-7l3,-6l-1,-7l2,-4l0,-7l3,-7z" fill="#002B5A" id="svg_26" transform="translate(1078,1315)"/>
  <path d="m0,0l6,0l4,9l11,24l4,6l-4,21l-2,1l-6,-13l-7,-14l-5,-8l-7,-15l-1,-7l5,-3l2,-1z" fill="#0068BD" id="svg_27" transform="translate(965,729)"/>
  <path d="m0,0l1,0l0,39l-8,17l-8,4l-9,4l-3,0l3,-9l18,-41l6,-14z" fill="#0068BD" id="svg_28" transform="translate(2047,518)"/>
  <path d="m0,0l5,1l-1,6l-4,7l-8,5l-20,8l-9,3l-2,-1l1,-6l3,-6l4,-4l12,-6l19,-7z" fill="#004B96" id="svg_29" transform="translate(765,594)"/>
  <path d="m0,0l5,1l-5,12l-16,8l-17,8l-5,0l-2,-4l5,-9l5,-5l27,-10l3,-1z" fill="#004B96" id="svg_30" transform="translate(684,658)"/>
  <path d="m0,0l5,0l-1,6l-9,19l-11,6l-12,1l3,-9l6,-13l1,-2l18,-8z" fill="#0068BD" id="svg_31" transform="translate(607,637)"/>
  <path d="m0,0l4,1l-1,6l-4,9l-4,7l-20,8l-4,-2l2,-6l8,-15l6,-4l13,-4z" fill="#0068BD" id="svg_32" transform="translate(863,539)"/>
  <path d="m0,0l5,0l-1,6l-7,16l-5,4l-16,6l-3,-1l1,-5l7,-16l7,-5l12,-5z" fill="#0068BD" id="svg_33" transform="translate(623,600)"/>
  <path d="m0,0l4,0l-1,6l-8,18l-13,6l-3,1l-7,0l5,-13l5,-9l16,-8l2,-1z" fill="#0068BD" id="svg_34" transform="translate(559,626)"/>
  <path d="m0,0l3,1l-1,6l-9,19l-18,7l-4,-1l3,-9l6,-13l16,-7l4,-3z" fill="#0068BD" id="svg_35" transform="translate(512,735)"/>
  <path d="m0,0l4,0l-1,6l-7,16l-16,7l-7,1l1,-6l8,-17l10,-4l8,-3z" fill="#0068BD" id="svg_36" transform="translate(815,527)"/>
  <path d="m0,0l4,2l-8,19l-5,4l-15,6l-4,-1l3,-9l7,-14l18,-7z" fill="#0068BD" id="svg_37" transform="translate(704,539)"/>
  <path d="m0,0l4,1l-1,5l-7,15l-3,3l-15,6l-5,-1l3,-9l6,-13l18,-7z" fill="#0068BD" id="svg_38" transform="translate(543,663)"/>
  <path d="m0,0l3,1l-3,10l-4,8l-4,4l-15,7l-6,0l-1,-2l10,-19l10,-5l10,-4z" fill="#0068BD" id="svg_39" transform="translate(959,564)"/>
  <path d="m0,0l5,0l-3,10l-6,12l-8,4l-11,4l-3,-1l1,-5l7,-16l11,-5l7,-3z" fill="#0068BD" id="svg_40" transform="translate(639,564)"/>
  <path d="m0,0l4,1l6,11l-1,6l-10,22l-3,0l-2,-6l-4,-8l1,-7l8,-18l1,-1z" fill="#0068BD" id="svg_41" transform="translate(1621,487)"/>
  <path d="m0,0l2,0l1,9l2,5l3,1l1,4l-11,25l-2,1l-2,-1l-2,-7l-3,-7l-1,-3l12,-27z" fill="#0068BD" id="svg_42" transform="translate(1646,529)"/>
  <path d="m0,0l3,3l4,12l1,5l-9,21l-3,2l-4,-6l1,-4l-1,-2l-2,1l-2,-3l1,-5l9,-20l2,-4z" fill="#0068BD" id="svg_43" transform="translate(1632,562)"/>
  <path d="m0,0l3,1l-1,6l-5,11l-4,4l-10,5l-9,1l1,-6l8,-16l17,-6z" fill="#0068BD" id="svg_44" transform="translate(767,516)"/>
  <path d="m0,0l4,0l-1,8l-6,13l-13,5l-5,2l-4,0l1,-6l7,-14l5,-3l12,-5z" fill="#0068BD" id="svg_45" transform="translate(493,654)"/>
  <path d="m0,0l3,1l-4,10l-14,7l-19,7l-5,0l3,-9l5,-4l31,-12z" fill="#004B96" id="svg_46" transform="translate(749,634)"/>
  <path d="m0,0l4,0l-1,6l-3,6l-12,5l-21,8l-4,0l1,-6l2,-5l27,-11l7,-3z" fill="#004B96" id="svg_47" transform="translate(812,609)"/>
  <path d="m0,0l4,3l4,7l0,2l2,0l-3,10l-7,15l-4,-2l-6,-9l1,-7l8,-18l1,-1z" fill="#0067BB" id="svg_48" transform="translate(1653,615)"/>
  <path d="m0,0l4,1l6,12l-1,5l-8,18l-2,1l-3,-2l-6,-13l9,-21l1,-1z" fill="#0067BC" id="svg_49" transform="translate(1606,521)"/>
  <path d="m0,0l4,1l-1,5l-3,5l-3,10l5,-11l2,4l1,8l-7,16l-7,2l-1,-3l2,-6l-4,3l-3,-3l1,-4l5,-13l4,-9l5,-5z" fill="#0067BC" id="svg_50" transform="translate(1680,658)"/>
  <path d="m0,0l3,1l6,13l-1,7l-8,17l-5,0l-1,-4l2,-7l-8,1l8,-20l4,-8z" fill="#0068BD" id="svg_51" transform="translate(1690,630)"/>
  <path d="m0,0l13,0l3,3l4,8l-9,21l-2,-4l-5,-8l-6,-13l2,-7z" fill="#004B96" id="svg_52" transform="translate(2024,317)"/>
  <path d="m0,0l3,2l-3,10l-5,9l-16,4l-4,-1l4,-8l3,-8l10,-5l8,-3z" fill="#0068BD" id="svg_53" transform="translate(575,591)"/>
  <path d="m0,0l4,1l-7,16l-22,8l-1,-3l7,-15l19,-7z" fill="#0068BD" id="svg_54" transform="translate(44,834)"/>
  <path d="m0,0l4,1l-5,12l-3,5l-16,6l-5,0l4,-10l2,-6l8,-4l11,-4z" fill="#0068BD" id="svg_55" transform="translate(478,691)"/>
  <path d="m0,0l3,0l-1,6l-2,4l-2,8l-9,4l-10,4l-4,-2l6,-9l4,-9l15,-6z" fill="#0068BD" id="svg_56" transform="translate(718,505)"/>
  <path d="m0,0l5,0l-3,6l-3,9l-1,2l-15,6l-6,0l1,-6l6,-12l11,-3l5,-2z" fill="#0068BD" id="svg_57" transform="translate(444,766)"/>
  <path d="m0,0l2,0l-1,6l-5,11l-20,7l-2,-1l1,-5l5,-10l9,-4l11,-4z" fill="#0068BD" id="svg_58" transform="translate(109,809)"/>
  <path d="m0,0l4,4l4,10l1,3l-8,18l-4,0l-1,-5l-5,-11l8,-18l1,-1z" fill="#0068BD" id="svg_59" transform="translate(1616,599)"/>
  <path d="m0,0l2,0l8,14l-3,9l-5,12l-5,-5l-5,-11l7,-17l1,-2z" fill="#0068BD" id="svg_60" transform="translate(1569,504)"/>
  <path d="m0,0l5,5l5,9l-3,9l-5,10l-3,0l-4,-5l-3,-10l8,-18z" fill="#0068BD" id="svg_61" transform="translate(1638,648)"/>
  <path d="m0,0l6,0l-3,9l-3,6l-9,4l-13,4l1,-6l5,-10l7,-3l9,-4z" fill="#0068BD" id="svg_62" transform="translate(426,684)"/>
  <path d="m0,0l3,0l-1,5l-6,12l-12,7l-8,1l1,-5l5,-10l5,-5l13,-5z" fill="#0068BD" id="svg_63" transform="translate(654,530)"/>
  <path d="m0,0l7,0l-3,9l-3,6l-13,4l-4,2l-5,0l1,-5l5,-10l15,-6z" fill="#0068BD" id="svg_64" transform="translate(168,786)"/>
  <path d="m0,0l4,2l3,6l1,-4l3,6l-1,6l-7,16l-1,-2l-3,-1l-6,-11l1,-6l6,-12z" fill="#0067BC" id="svg_65" transform="translate(1591,555)"/>
  <path d="m0,0l3,0l-3,9l-3,6l-12,5l-6,2l-5,0l5,-12l2,-3l19,-7z" fill="#0068BD" id="svg_66" transform="translate(365,709)"/>
  <path d="m0,0l3,3l-2,1l3,5l2,-1l3,6l-1,7l-6,12l-3,0l-7,-13l3,-9l5,-11z" fill="#0067BC" id="svg_67" transform="translate(1601,632)"/>
  <path d="m0,0l4,1l3,1l-1,7l-4,7l-16,7l-4,-1l4,-8l5,-9l3,-3l6,-2z" fill="#0068BD" id="svg_68" transform="translate(823,495)"/>
  <path d="m0,0l3,3l4,9l2,4l-1,5l-6,13l-4,-4l-5,-11l1,-6l6,-13z" fill="#0068BD" id="svg_69" transform="translate(1555,536)"/>
  <path d="m0,0l7,6l6,12l5,5l0,23l-4,-1l-2,-6l-2,-10l-8,-17l-2,-12z" fill="#002B5A" id="svg_70" transform="translate(2030,1087)"/>
  <path d="m0,0l5,0l-5,12l-18,7l-5,1l3,-9l3,-6l10,-4l7,-1z" fill="#0068BD" id="svg_71" transform="translate(234,762)"/>
  <path d="m0,0l4,1l-3,9l-3,5l-12,3l-4,2l-5,0l3,-9l2,-4l18,-7z" fill="#0068BD" id="svg_72" transform="translate(299,735)"/>
  <path d="m0,0l5,5l5,8l-1,4l-6,14l-4,-3l-4,-9l0,-2l-2,0l1,-5l6,-12z" fill="#0068BD" id="svg_73" transform="translate(1517,523)"/>
  <path d="m0,0l4,4l4,8l0,2l2,1l-5,13l-2,4l-2,0l-4,-9l-3,-7l1,-5l5,-11z" fill="#0068BD" id="svg_74" transform="translate(1540,570)"/>
  <path d="m0,0l9,0l2,2l-1,7l-4,4l-15,8l-4,-2l3,-6l5,-8l5,-5z" fill="#0068BD" id="svg_75" transform="translate(913,522)"/>
  <path d="m0,0l6,0l3,6l1,6l-8,4l-13,4l-1,-2l6,-15l6,-3z" fill="#0068BD" id="svg_76" transform="translate(498,621)"/>
  <path d="m0,0l3,3l-2,0l5,9l3,0l1,4l-5,11l-2,-4l0,-4l-3,0l1,12l-5,-5l-1,-2l-2,1l-2,-5l5,-10l0,-1l4,-9z" fill="#0068BD" id="svg_77" transform="translate(1578,584)"/>
  <path d="m0,0l5,1l5,2l1,4l-4,6l-15,8l-5,0l2,-5l7,-14l4,-2z" fill="#0068BD" id="svg_78" transform="translate(866,509)"/>
  <path d="m0,0l4,4l5,9l-1,6l-5,11l-3,-1l-7,-12l2,-7l3,2l1,-2l-2,-4l3,-6z" fill="#0068BD" id="svg_79" transform="translate(1549,651)"/>
  <path d="m0,0l3,1l0,5l3,8l3,-1l-1,6l-5,12l-5,-2l-2,-5l2,0l0,-4l-2,0l-3,-4l2,-6l5,-10z" fill="#0068BD" id="svg_80" transform="translate(1563,619)"/>
  <path d="m0,0l4,3l5,12l-1,5l-3,3l-3,0l-1,5l-3,-2l-3,-6l0,-2l-2,0l3,-9l4,-9z" fill="#0068BD" id="svg_81" transform="translate(1586,666)"/>
  <path d="m0,0l7,2l2,5l1,15l-5,1l-8,-8l-2,-6l1,-7l4,-2z" fill="#004B96" id="svg_82" transform="translate(842,747)"/>
  <path d="m0,0l2,2l1,11l2,6l-7,16l-1,-2l-2,0l0,-2l-3,-1l-3,-3l3,-8l3,-5l4,-7l1,-7z" fill="#0068BD" id="svg_83" transform="translate(1628,679)"/>
  <path d="m0,0l3,1l0,2l2,1l0,11l-3,1l-3,11l-4,2l-1,-5l-3,-1l1,-5l2,-2l2,1l4,-11l-2,0l2,-6z" fill="#06b" id="svg_84" transform="translate(1610,711)"/>
  <path d="m0,0l2,1l-8,18l-2,1l-3,-2l-4,-10l0,-2l15,-6z" fill="#0068BD" id="svg_85" transform="translate(1641,474)"/>
  <path d="m0,0l2,0l5,9l-1,5l-4,3l-2,6l-3,-1l-3,-7l1,-5l5,-10z" fill="#0068BD" id="svg_86" transform="translate(1468,543)"/>
  <path d="m0,0l2,0l6,10l0,3l-5,1l0,5l-4,1l-3,-5l-1,-10l1,-2l3,-1l1,-2z" fill="#0068BD" id="svg_87" transform="translate(1504,558)"/>
  <path d="m0,0l5,1l-5,6l-8,6l-8,2l0,-9l16,-6z" fill="#002B5A" id="svg_88" transform="translate(16,86)"/>
  <path d="m0,0l27,0l-2,4l-3,-1l-13,4l-11,1l-1,-3l2,-2l1,-3z" fill="#002B5A" id="svg_89" transform="translate(1744)"/>
  <path d="m0,0l4,4l6,12l-3,7l-4,-2l-4,-6l-1,-7l-1,-2l3,-6z" fill="#0068BD" id="svg_90" transform="translate(1526,602)"/>
  <path d="m0,0l7,0l3,3l1,7l-3,6l-2,0l-1,3l-4,-4l0,-10l-1,-5z" fill="#0068BD" id="svg_91" transform="translate(1485,594)"/>
  <path d="m0,0l5,1l4,2l1,2l0,15l-3,1l-6,-13l-2,-4l1,-4z" fill="#0068BD" id="svg_92" transform="translate(985,724)"/>
  <path d="m0,0l4,4l5,12l-3,7l-4,-1l-3,-5l1,-4l1,0l0,-6l-2,2l-1,3l-2,-4l4,-8z" fill="#0068BD" id="svg_93" transform="translate(1535,683)"/>
  <path d="m0,0l5,1l7,3l0,4l-15,6l-3,-1l5,-12l1,-1z" fill="#0068BD" id="svg_94" transform="translate(956,539)"/>
  <path d="m0,0l3,1l5,11l-4,8l-3,1l-3,-12l2,-6l0,-3z" fill="#0068BD" id="svg_95" transform="translate(1438,605)"/>
  <path d="m0,0l1,4l2,5l-1,6l-3,4l-7,2l-1,-2l9,-19z" fill="#0068BD" id="svg_96" transform="translate(1667,701)"/>
  <path d="m0,0l5,3l0,17l-2,0l-5,-8l0,-2l-2,-1l4,-9z" fill="#002B5A" id="svg_97" transform="translate(2043,368)"/>
  <path d="m0,0l4,2l2,8l-3,1l-2,4l-4,3l-2,-6l2,-1l1,-8l2,-3z" fill="#0068BD" id="svg_98" transform="translate(1475,622)"/>
  <path d="m0,0l3,0l-2,6l-4,6l-6,2l-4,-1l13,-13z" fill="#0068BD" id="svg_99" transform="translate(588,561)"/>
  <path d="m0,0l2,3l4,2l0,14l-3,-1l-1,-5l-1,-3l-2,0l0,-9l1,-1z" fill="#002B5A" id="svg_100" transform="translate(2042,1047)"/>
  <path d="m0,0l2,0l-1,5l-4,8l-5,-5l-1,-4l9,-4z" fill="#0068BD" id="svg_101" transform="translate(1587,495)"/>
  <path d="m0,0l5,2l1,6l0,11l-2,1l-3,-12l0,-4l-2,-1l1,-3z" fill="#0068BD" id="svg_102" transform="translate(1413,563)"/>
  <path d="m0,0l2,0l1,3l-7,15l-2,1l-1,-4l4,-9l3,-3l0,-3z" fill="#0068BD" id="svg_103" transform="translate(1571,700)"/>
  <path d="m0,0l4,4l5,12l-4,0l-5,-11l0,-5z" fill="#0068BD" id="svg_104" transform="translate(1452,571)"/>
  <path d="m0,0l5,3l2,3l0,4l-6,0l-2,-4l0,-4l1,-2z" fill="#002B5B" id="svg_105" transform="translate(1923,1355)"/>
  <path d="m0,0l4,1l2,9l-2,2l-3,-4l-1,-8z" fill="#004B96" id="svg_106" transform="translate(1802,485)"/>
  <path d="m0,0l1,0l0,14l-5,-3l3,-9l1,-2z" fill="#004790" id="svg_107" transform="translate(2047,357)"/>
  <path d="m0,0l3,0l4,10l-3,1l-3,-3l-1,-8z" fill="#004B96" id="svg_108" transform="translate(1862,550)"/>
  <path d="m0,0l2,4l-3,5l-2,4l-1,3l-3,-1l7,-15z" fill="#0068BD" id="svg_109" transform="translate(1557,732)"/>
  <path d="m0,0l5,1l5,8l0,2l-4,-2l-4,-5l0,-3l-2,-1z" fill="#004B96" id="svg_110" transform="translate(1813,453)"/>
 </g>
</svg>